<?xml version="1.0" encoding="utf-8"?>
<!-- Generator: Adobe Illustrator 16.0.0, SVG Export Plug-In . SVG Version: 6.00 Build 0)  -->
<!DOCTYPE svg PUBLIC "-//W3C//DTD SVG 1.1//EN" "http://www.w3.org/Graphics/SVG/1.1/DTD/svg11.dtd">
<svg version="1.1" xmlns="http://www.w3.org/2000/svg" xmlns:xlink="http://www.w3.org/1999/xlink" x="0px" y="0px" width="304px"
	 height="384px" viewBox="0 0 304 384" enable-background="new 0 0 304 384" xml:space="preserve">
<g>
	<polygon fill="#00AF50" points="160,68 143,68 143,52 151.5,36 160,52 	"/>
	<rect x="32" y="68" fill="#00AF50" width="111" height="16"/>
	<rect x="160" y="68" fill="#00AF50" width="112" height="16"/>
	<rect x="143" y="68" fill="#00AF50" width="17" height="48"/>
	<rect x="32" y="116" fill="#00AF50" width="111" height="16"/>
	<rect x="160" y="116" fill="#00AF50" width="112" height="16"/>
	<rect x="143" y="116" fill="#00AF50" width="17" height="48"/>
	<rect x="32" y="164" fill="#00AF50" width="111" height="16"/>
	<rect x="160" y="164" fill="#00AF50" width="112" height="16"/>
	<rect x="143" y="164" fill="#00AF50" width="17" height="48"/>
	<rect x="32" y="212" fill="#00AF50" width="111" height="16"/>
	<rect x="160" y="212" fill="#00AF50" width="112" height="16"/>
	<rect x="143" y="212" fill="#00AF50" width="17" height="48"/>
	<rect x="32" y="260" fill="#00AF50" width="111" height="16"/>
	<rect x="160" y="260" fill="#00AF50" width="112" height="16"/>
	<rect x="143" y="260" fill="#00AF50" width="17" height="48"/>
	<rect x="32" y="308" fill="#00AF50" width="111" height="16"/>
	<rect x="160" y="308" fill="#00AF50" width="112" height="16"/>
	<rect x="143" y="308" fill="#00AF50" width="17" height="48"/>
	<polygon fill="#FF9442" points="160,367.25 143,367.25 151.5,360.813 	"/>
</g>
<g>
	<text transform="matrix(1 0 0 1 47.1665 98.1665)" fill="#FF9442" font-family="'SimSun'" font-size="16">龙翔路 </text>
	<text transform="matrix(1 0 0 1 47.1665 146.208)" fill="#FF9442" font-family="'SimSun'" font-size="16">龙轩路 </text>
	<text transform="matrix(1 0 0 1 47.1665 194.041)" fill="#FF9442" font-family="'SimSun'" font-size="16">龙浩路 </text>
	<text transform="matrix(1 0 0 1 47.1665 242.208)" fill="#FF9442" font-family="'SimSun'" font-size="16">龙航路 </text>
	<text transform="matrix(1 0 0 1 47.1665 290.168)" fill="#FF9442" font-family="'SimSun'" font-size="16">龙堰路 </text>
	<text transform="matrix(1 0 0 1 47.1665 337.668)" fill="#FF9442" font-family="'SimSun'" font-size="16">南阳湾路 </text>
	<text transform="matrix(1 0 0 1 224.166 98.1665)" fill="#FF9442" font-family="'SimSun'" font-size="16">龙翔路 </text>
	<text transform="matrix(1 0 0 1 160.041 105.5415)" fill="#FF9442" font-family="'SimSun'" font-size="16">杭</text>
	<text transform="matrix(1 0 0 1 160.041 153.5415)" fill="#FF9442" font-family="'SimSun'" font-size="16">州</text>
	<text transform="matrix(1 0 0 1 160.041 202.041)" fill="#FF9442" font-family="'SimSun'" font-size="16">湾</text>
	<text transform="matrix(1 0 0 1 160.041 249.207)" fill="#FF9442" font-family="'SimSun'" font-size="16">大</text>
	<text transform="matrix(1 0 0 1 160.041 297.207)" fill="#FF9442" font-family="'SimSun'" font-size="16">道</text>
	<text transform="matrix(1 0 0 1 224.166 146.208)" fill="#FF9442" font-family="'SimSun'" font-size="16">龙轩路 </text>
	<text transform="matrix(1 0 0 1 224.166 194.041)" fill="#FF9442" font-family="'SimSun'" font-size="16">龙浩路 </text>
	<text transform="matrix(1 0 0 1 224.166 242.208)" fill="#FF9442" font-family="'SimSun'" font-size="16">龙航路 </text>
	<text transform="matrix(1 0 0 1 224.166 290.168)" fill="#FF9442" font-family="'SimSun'" font-size="16">龙堰路 </text>
	<text transform="matrix(1 0 0 1 208.166 337.668)" fill="#FF9442" font-family="'SimSun'" font-size="16">南阳湾路 </text>
</g>
</svg>
